<svg width="48" height="42" viewBox="0 0 48 42" fill="none" xmlns="http://www.w3.org/2000/svg">
<g filter="url(#filter0_d)">
<path d="M41.5 6.25H6.5C5.12 6.25 4 7.37 4 8.75V10.1725L24 18.6425L44 10.17V8.75C44 7.37 42.88 6.25 41.5 6.25Z" fill="#4589EE"/>
<path d="M24.4875 21.1501C24.3325 21.2176 24.165 21.2501 24 21.2501C23.835 21.2501 23.6675 21.2176 23.5125 21.1501L4 12.8876V31.2501C4 32.6301 5.12 33.7501 6.5 33.7501H41.5C42.88 33.7501 44 32.6301 44 31.2501V12.8876L24.4875 21.1501Z" fill="#4589EE"/>
</g>
<defs>
<filter id="filter0_d" x="0" y="0" width="48" height="48" filterUnits="userSpaceOnUse" color-interpolation-filters="sRGB">
<feFlood flood-opacity="0" result="BackgroundImageFix"/>
<feColorMatrix in="SourceAlpha" type="matrix" values="0 0 0 0 0 0 0 0 0 0 0 0 0 0 0 0 0 0 127 0"/>
<feOffset dy="4"/>
<feGaussianBlur stdDeviation="2"/>
<feColorMatrix type="matrix" values="0 0 0 0 0 0 0 0 0 0 0 0 0 0 0 0 0 0 0.25 0"/>
<feBlend mode="normal" in2="BackgroundImageFix" result="effect1_dropShadow"/>
<feBlend mode="normal" in="SourceGraphic" in2="effect1_dropShadow" result="shape"/>
</filter>
</defs>
</svg>
