<svg width="487" height="332" viewBox="0 0 487 332" fill="none" xmlns="http://www.w3.org/2000/svg">
<path d="M73.1092 269.717C69.6077 283.056 57.3382 291.392 57.3382 291.392C57.3382 291.392 50.7458 278.101 54.2472 264.762C57.7487 251.423 70.0182 243.087 70.0182 243.087C70.0182 243.087 76.6106 256.378 73.1092 269.717Z" fill="#3F3D56"/>
<path d="M67.7983 266.895C57.9912 276.588 56.894 291.385 56.894 291.385C56.894 291.385 71.6972 290.466 81.5042 280.773C91.3112 271.081 92.4084 256.284 92.4084 256.284C92.4084 256.284 77.6053 257.202 67.7983 266.895Z" fill="url(#paint0_linear)"/>
<path d="M80.0965 287.486H41.7352C37.5274 287.486 34.1164 290.899 34.1164 295.108V302.682C34.1164 306.891 37.5274 310.303 41.7352 310.303H80.0965C84.3042 310.303 87.7153 306.891 87.7153 302.682V295.108C87.7153 290.899 84.3042 287.486 80.0965 287.486Z" fill="url(#paint1_linear)"/>
<g opacity="0.7">
<path opacity="0.7" d="M448.927 272.911V264.689H407.834V302.715C407.834 303.767 408.042 304.81 408.444 305.782C408.847 306.755 409.437 307.639 410.181 308.383C410.925 309.127 411.809 309.718 412.781 310.121C413.753 310.524 414.795 310.731 415.847 310.731H440.914C443.039 310.731 445.077 309.886 446.58 308.383C448.083 306.88 448.927 304.841 448.927 302.715V294.288C451.757 294.282 454.469 293.154 456.468 291.15C458.467 289.146 459.59 286.43 459.59 283.599C459.59 280.768 458.467 278.053 456.468 276.049C454.469 274.045 451.757 272.917 448.927 272.911ZM448.927 290.177V277.022C450.671 277.022 452.343 277.715 453.576 278.948C454.809 280.182 455.502 281.855 455.502 283.599C455.502 285.344 454.809 287.017 453.576 288.25C452.343 289.484 450.671 290.177 448.927 290.177Z" fill="url(#paint2_linear)"/>
</g>
<path d="M447.605 274.198C445.675 274.198 443.789 274.77 442.185 275.843C440.581 276.915 439.331 278.439 438.592 280.222C437.854 282.006 437.661 283.968 438.037 285.861C438.414 287.754 439.343 289.493 440.707 290.857C442.071 292.222 443.809 293.152 445.702 293.528C447.594 293.905 449.555 293.711 451.338 292.973C453.12 292.234 454.644 290.983 455.716 289.379C456.788 287.774 457.36 285.887 457.36 283.957C457.36 281.369 456.332 278.887 454.503 277.056C452.673 275.226 450.192 274.198 447.605 274.198ZM447.605 289.962C446.417 289.962 445.257 289.61 444.27 288.95C443.282 288.29 442.513 287.352 442.059 286.255C441.604 285.158 441.485 283.95 441.717 282.785C441.949 281.62 442.52 280.55 443.36 279.71C444.199 278.871 445.269 278.299 446.434 278.067C447.598 277.835 448.805 277.954 449.902 278.409C450.999 278.863 451.937 279.633 452.596 280.62C453.256 281.608 453.608 282.769 453.608 283.957C453.608 285.55 452.975 287.077 451.85 288.203C450.724 289.33 449.197 289.962 447.605 289.962Z" fill="url(#paint3_linear)"/>
<path opacity="0.1" d="M447.605 274.198C445.675 274.198 443.789 274.77 442.185 275.843C440.581 276.915 439.331 278.439 438.592 280.222C437.854 282.006 437.661 283.968 438.037 285.861C438.414 287.754 439.343 289.493 440.707 290.857C442.071 292.222 443.809 293.152 445.702 293.528C447.594 293.905 449.555 293.711 451.338 292.973C453.12 292.234 454.644 290.983 455.716 289.379C456.788 287.774 457.36 285.887 457.36 283.957C457.36 281.369 456.332 278.887 454.503 277.056C452.673 275.226 450.192 274.198 447.605 274.198ZM447.605 289.962C446.417 289.962 445.257 289.61 444.27 288.95C443.282 288.29 442.513 287.352 442.059 286.255C441.604 285.158 441.485 283.95 441.717 282.785C441.949 281.62 442.52 280.55 443.36 279.71C444.199 278.871 445.269 278.299 446.434 278.067C447.598 277.835 448.805 277.954 449.902 278.409C450.999 278.863 451.937 279.633 452.596 280.62C453.256 281.608 453.608 282.769 453.608 283.957C453.608 285.55 452.975 287.077 451.85 288.203C450.724 289.33 449.197 289.962 447.605 289.962Z" fill="black"/>
<path d="M410.086 266.691H447.605V303.839C447.605 305.136 447.09 306.38 446.173 307.297C445.257 308.214 444.013 308.729 442.717 308.729H414.973C413.677 308.729 412.434 308.214 411.517 307.297C410.6 306.38 410.086 305.136 410.086 303.839V266.691Z" fill="url(#paint4_linear)"/>
<path d="M487 308.729H0V325.244H487V308.729Z" fill="#E0E0E0"/>
<g opacity="0.7">
<path opacity="0.7" d="M320.327 198.229C315.107 179.276 285.516 165.436 263.251 162.367C263.254 162.228 263.262 162.089 263.262 161.948V145.724C263.285 145.716 263.31 145.708 263.333 145.7V145.085C271.235 142.145 278.366 137.446 284.185 131.345C290.005 125.243 294.362 117.897 296.927 109.863C298.303 107.374 299.501 104.79 300.511 102.132C302.888 101.266 304.683 97.3451 304.683 92.6338C304.692 91.0223 304.466 89.4181 304.012 87.8717C304.304 85.4723 304.453 83.0576 304.458 80.6404C304.467 72.1905 302.7 63.8331 299.272 56.1106C295.844 48.3881 290.83 41.473 284.558 35.8142C284.744 34.8436 284.807 33.8533 284.746 32.8668C284.242 25.0798 275.928 19.7894 268.136 19.4356C270.194 17.0996 271.547 14.2272 272.038 11.1522C272.529 8.07726 272.137 4.92606 270.909 2.06498C265.94 9.30643 255.739 10.0762 246.96 10.1331C250.748 8.66548 252.453 3.41433 250.25 0C241.074 12.304 223.186 14.5824 212.272 25.3733C209.894 27.7336 207.902 30.4525 206.367 33.4309C199.274 39.0835 193.547 46.2642 189.614 54.4381C185.68 62.6121 183.64 71.5685 183.647 80.6404C183.652 83.0357 183.798 85.4285 184.084 87.8066C183.616 89.3726 183.383 90.9994 183.392 92.6338C183.392 97.3667 185.205 101.3 187.598 102.141C188.612 104.809 189.816 107.401 191.198 109.898C193.754 117.886 198.082 125.192 203.859 131.27C209.636 137.348 216.711 142.04 224.557 144.996V161.948C224.557 162.079 224.564 162.208 224.567 162.338C202.217 165.354 172.39 179.303 167.217 198.408C162.749 214.907 157.981 233.027 155.608 243.665C175.945 257.961 218.62 266.355 245.364 266.355C270.775 266.355 312.307 258.778 332.045 245.761C329.907 234.072 324.988 215.157 320.327 198.229Z" fill="url(#paint5_linear)"/>
</g>
<path d="M245.31 261.649C269.822 261.649 309.887 254.34 328.928 241.783C326.866 230.507 322.12 212.26 317.623 195.931C311.896 175.134 275.749 160.717 254.186 160.717H233.408C211.778 160.717 175.579 175.218 169.924 196.103C165.614 212.019 161.014 229.498 158.725 239.761C178.344 253.551 219.511 261.649 245.31 261.649Z" fill="url(#paint6_linear)"/>
<path d="M244.045 140.79C276.227 140.79 302.316 114.691 302.316 82.4969C302.316 50.3023 276.227 24.2034 244.045 24.2034C211.862 24.2034 185.774 50.3023 185.774 82.4969C185.774 114.691 211.862 140.79 244.045 140.79Z" fill="#665939"/>
<path opacity="0.1" d="M225.238 131.05H262.575V160.932C262.575 165.885 260.608 170.635 257.107 174.138C253.606 177.64 248.858 179.608 243.906 179.608H243.906C238.955 179.608 234.207 177.64 230.706 174.138C227.204 170.635 225.238 165.885 225.238 160.932V131.05H225.238Z" fill="black"/>
<path d="M230.593 129.667H257.219C258.64 129.667 260.002 130.231 261.006 131.236C262.011 132.241 262.575 133.604 262.575 135.024V159.548C262.575 164.501 260.608 169.252 257.107 172.754C253.606 176.257 248.858 178.224 243.906 178.224H243.906C238.955 178.224 234.207 176.257 230.706 172.754C227.204 169.252 225.238 164.501 225.238 159.548V135.024C225.238 133.604 225.802 132.241 226.806 131.236C227.811 130.231 229.173 129.667 230.593 129.667Z" fill="#FDA57D"/>
<path opacity="0.1" d="M225.307 145.154C237.34 149.652 250.586 149.689 262.644 145.257V140.669H225.307V145.154Z" fill="black"/>
<path d="M244.045 147.655C273.601 147.655 297.562 123.685 297.562 94.1174C297.562 64.5494 273.601 40.5798 244.045 40.5798C214.488 40.5798 190.528 64.5494 190.528 94.1174C190.528 123.685 214.488 147.655 244.045 147.655Z" fill="#FDA57D"/>
<path opacity="0.1" d="M205.924 45.4191C205.924 45.4191 228.479 91.2184 292.101 64.6144L277.29 41.378L251.033 31.9487L205.924 45.4191Z" fill="black"/>
<path d="M205.924 44.7458C205.924 44.7458 228.479 90.545 292.101 63.941L277.29 40.7046L251.033 31.2754L205.924 44.7458Z" fill="#665939"/>
<path d="M205.724 41.6516C207.244 36.9418 209.872 32.6658 213.387 29.1827C223.915 18.7731 241.171 16.5753 250.023 4.70605C252.148 7.99977 250.504 13.0653 246.849 14.4811C255.318 14.4262 265.159 13.6837 269.952 6.69807C271.137 9.45806 271.515 12.4979 271.041 15.4642C270.568 18.4305 269.262 21.2015 267.277 23.4549C274.793 23.7962 282.814 28.8996 283.3 36.4114C283.623 41.4158 280.487 46.154 276.376 49.024C272.265 51.894 267.291 53.2116 262.396 54.2913C248.106 57.4432 196.399 70.6539 205.724 41.6516Z" fill="#665939"/>
<path d="M297.56 94.5862H296.141L268.537 119.17C241.944 106.709 222.419 119.17 222.419 119.17L193.469 95.5965L190.55 95.9634C190.946 110.015 196.85 123.346 206.987 133.08C217.125 142.814 230.683 148.168 244.733 147.988C258.783 147.807 272.198 142.105 282.082 132.114C291.966 122.122 297.526 108.643 297.56 94.5862ZM243.963 128.599C233.552 128.599 225.112 126.488 225.112 123.884C225.112 121.28 233.552 119.17 243.963 119.17C254.375 119.17 262.815 121.28 262.815 123.884C262.815 126.488 254.375 128.599 243.963 128.599Z" fill="#665939"/>
<path d="M190.506 103.404C193.256 103.404 195.485 99.2237 195.485 94.0665C195.485 88.9093 193.256 84.7285 190.506 84.7285C187.757 84.7285 185.528 88.9093 185.528 94.0665C185.528 99.2237 187.757 103.404 190.506 103.404Z" fill="#FDA57D"/>
<path d="M297.555 103.404C300.304 103.404 302.533 99.2237 302.533 94.0665C302.533 88.9093 300.304 84.7285 297.555 84.7285C294.805 84.7285 292.576 88.9093 292.576 94.0665C292.576 99.2237 294.805 103.404 297.555 103.404Z" fill="#FDA57D"/>
<g opacity="0.7">
<path opacity="0.7" d="M339.784 189.423H147.216C143.201 189.423 139.947 192.678 139.947 196.695V301.457C139.947 305.473 143.201 308.729 147.216 308.729H339.784C343.799 308.729 347.053 305.473 347.053 301.457V196.695C347.053 192.678 343.799 189.423 339.784 189.423Z" fill="url(#paint7_linear)"/>
</g>
<path d="M329.848 191.624H157.152C149.722 191.624 143.699 197.649 143.699 205.082V295.271C143.699 302.704 149.722 308.729 157.152 308.729H329.848C337.278 308.729 343.301 302.704 343.301 295.271V205.082C343.301 197.649 337.278 191.624 329.848 191.624Z" fill="#535461"/>
<path d="M243.5 256.933C247.23 256.933 250.253 253.908 250.253 250.176C250.253 246.445 247.23 243.42 243.5 243.42C239.77 243.42 236.746 246.445 236.746 250.176C236.746 253.908 239.77 256.933 243.5 256.933Z" fill="white"/>
<path d="M466.364 325.244H20.6356V332H466.364V325.244Z" fill="#E0E0E0"/>
<path opacity="0.1" d="M466.364 325.244H20.6356V327.496H466.364V325.244Z" fill="black"/>
<path opacity="0.1" d="M440.851 266.691V301.41C440.851 303.351 440.08 305.213 438.708 306.585C437.336 307.958 435.475 308.729 433.535 308.729H437.287C439.227 308.729 441.088 307.958 442.46 306.585C443.832 305.213 444.603 303.351 444.603 301.41V266.691H440.851Z" fill="black"/>
<path d="M417.489 238.709C416.857 238.817 416.143 238.988 415.833 239.55C415.34 240.443 416.232 241.449 417.046 242.062C418.55 243.196 420.134 244.308 421.156 245.89C422.178 247.471 422.5 249.678 421.382 251.194C419.924 253.173 416.443 253.599 416.106 256.034C415.89 257.598 417.241 258.932 418.611 259.717C421.99 261.653 426.347 262.17 428.795 265.201C429.808 263.117 432.073 261.913 434.331 261.399C436.588 260.885 438.934 260.923 441.223 260.574C441.962 260.462 442.795 260.236 443.125 259.565C443.765 258.266 441.941 256.708 442.571 255.404C443.05 254.411 444.457 254.488 445.485 254.091C447.158 253.443 447.848 251.289 447.373 249.558C446.898 247.827 445.557 246.474 444.146 245.365C440.344 242.377 435.772 240.619 431.148 239.355C428.998 238.767 426.473 237.845 424.239 237.756C422.083 237.67 419.624 238.343 417.489 238.709Z" fill="#EEEEEE"/>
<defs>
<linearGradient id="paint0_linear" x1="74.6512" y1="256.284" x2="74.6512" y2="291.385" gradientUnits="userSpaceOnUse">
<stop stop-color="#4589EE"/>
<stop offset="1" stop-color="#0B4EB1"/>
</linearGradient>
<linearGradient id="paint1_linear" x1="60.9158" y1="287.486" x2="60.9158" y2="310.303" gradientUnits="userSpaceOnUse">
<stop stop-color="#4589EE"/>
<stop offset="1" stop-color="#0B4EB1"/>
</linearGradient>
<linearGradient id="paint2_linear" x1="433.723" y1="310.731" x2="433.723" y2="264.689" gradientUnits="userSpaceOnUse">
<stop stop-color="#808080" stop-opacity="0.25"/>
<stop offset="0.53514" stop-color="#808080" stop-opacity="0.12"/>
<stop offset="1" stop-color="#808080" stop-opacity="0.1"/>
</linearGradient>
<linearGradient id="paint3_linear" x1="447.605" y1="274.198" x2="447.605" y2="293.716" gradientUnits="userSpaceOnUse">
<stop stop-color="#4589EE"/>
<stop offset="1" stop-color="#0B4EB1"/>
</linearGradient>
<linearGradient id="paint4_linear" x1="428.845" y1="266.691" x2="428.845" y2="308.729" gradientUnits="userSpaceOnUse">
<stop stop-color="#4589EE"/>
<stop offset="1" stop-color="#0B4EB1"/>
</linearGradient>
<linearGradient id="paint5_linear" x1="106133" y1="173159" x2="106133" y2="31696.2" gradientUnits="userSpaceOnUse">
<stop stop-color="#808080" stop-opacity="0.25"/>
<stop offset="0.53514" stop-color="#808080" stop-opacity="0.12"/>
<stop offset="1" stop-color="#808080" stop-opacity="0.1"/>
</linearGradient>
<linearGradient id="paint6_linear" x1="243.827" y1="160.717" x2="243.827" y2="261.649" gradientUnits="userSpaceOnUse">
<stop stop-color="#4589EE"/>
<stop offset="1" stop-color="#0B4EB1"/>
</linearGradient>
<linearGradient id="paint7_linear" x1="100736" y1="73634.3" x2="100736" y2="45252" gradientUnits="userSpaceOnUse">
<stop stop-color="#808080" stop-opacity="0.25"/>
<stop offset="0.53514" stop-color="#808080" stop-opacity="0.12"/>
<stop offset="1" stop-color="#808080" stop-opacity="0.1"/>
</linearGradient>
</defs>
</svg>
