<svg width="162" height="91" viewBox="0 0 162 91" fill="none" xmlns="http://www.w3.org/2000/svg">
<path d="M75.0174 77.2676C76.0881 78.4516 75.9313 80.3008 74.6968 81.3128C69.2984 85.7378 64.2392 90.0743 55.0871 89.2626C54.1927 89.1833 53.2872 89.1643 52.4006 89.3067C44.807 90.5262 37.1823 93.2552 30.0145 87.2964C28.9668 86.4254 27.8511 85.6136 26.5612 85.1747C19.7231 82.848 13.7327 82.7574 9.41219 72.1346C9.05257 71.2504 8.61179 70.3924 8.01967 69.6437C3.52359 63.959 -1.12495 60.6697 0.643417 49.4978C0.764877 48.7305 0.830872 47.9509 0.769081 47.1765C0.201103 40.0582 -2.13454 35.0714 5.67461 26.9974C6.26782 26.384 6.82243 25.7234 7.20999 24.9632C10.5003 18.5094 9.69496 10.9507 20.4304 9.06775C21.6087 8.86107 22.7769 8.55147 23.8232 7.97134C29.8321 4.63963 40.2613 -2.15653 49.431 0.673432C51.8045 1.40594 54.2848 1.96357 56.7663 1.85264C64.9548 1.4866 67.0042 5.67807 71.4788 9.48076C72.6851 10.506 73.0088 12.3108 72.0542 13.5737C71.1893 14.7179 69.591 14.9892 68.3431 14.2821C62.6322 11.0464 56.1363 9.16332 49.4295 8.81773C41.8551 8.42744 34.3144 10.0137 27.6609 13.3969C21.0074 16.7801 15.507 21.8251 11.7822 27.9608C8.05743 34.0965 6.25713 41.0778 6.58513 48.1144C6.91313 55.1509 9.35632 61.9617 13.6381 67.7757C17.9199 73.5897 23.8693 78.1746 30.8127 81.0115C37.7561 83.8483 45.4163 84.8238 52.9259 83.8274C59.568 82.9461 65.8577 80.5534 71.2421 76.8787C72.4312 76.0673 74.0519 76.2 75.0174 77.2676Z" fill="#52ACFF"/>
<path d="M33.4 33.536C35.768 33.536 37.8373 34.0053 39.608 34.944C41.3787 35.8827 42.744 37.2053 43.704 38.912C44.6853 40.5973 45.176 42.5493 45.176 44.768C45.176 46.9653 44.6853 48.9173 43.704 50.624C42.744 52.3307 41.368 53.6533 39.576 54.592C37.8053 55.5307 35.7467 56 33.4 56H24.984V33.536H33.4ZM33.048 51.264C35.1173 51.264 36.728 50.6987 37.88 49.568C39.032 48.4373 39.608 46.8373 39.608 44.768C39.608 42.6987 39.032 41.088 37.88 39.936C36.728 38.784 35.1173 38.208 33.048 38.208H30.456V51.264H33.048ZM47.146 47.04C47.146 45.2053 47.4873 43.5947 48.17 42.208C48.874 40.8213 49.8233 39.7547 51.018 39.008C52.2127 38.2613 53.546 37.888 55.018 37.888C56.2767 37.888 57.3753 38.144 58.314 38.656C59.274 39.168 60.01 39.84 60.522 40.672V38.144H65.994V56H60.522V53.472C59.9887 54.304 59.242 54.976 58.282 55.488C57.3433 56 56.2447 56.256 54.986 56.256C53.5353 56.256 52.2127 55.8827 51.018 55.136C49.8233 54.368 48.874 53.2907 48.17 51.904C47.4873 50.496 47.146 48.8747 47.146 47.04ZM60.522 47.072C60.522 45.7067 60.138 44.6293 59.37 43.84C58.6233 43.0507 57.706 42.656 56.618 42.656C55.53 42.656 54.602 43.0507 53.834 43.84C53.0873 44.608 52.714 45.6747 52.714 47.04C52.714 48.4053 53.0873 49.4933 53.834 50.304C54.602 51.0933 55.53 51.488 56.618 51.488C57.706 51.488 58.6233 51.0933 59.37 50.304C60.138 49.5147 60.522 48.4373 60.522 47.072ZM75.4248 41.12C76.0648 40.1387 76.8648 39.3707 77.8248 38.816C78.7848 38.24 79.8514 37.952 81.0248 37.952V43.744H79.5208C78.1554 43.744 77.1314 44.0427 76.4488 44.64C75.7661 45.216 75.4248 46.24 75.4248 47.712V56H69.9528V38.144H75.4248V41.12ZM94.5523 56L89.1123 48.512V56H83.6403V32.32H89.1123V45.408L94.5203 38.144H101.272L93.8483 47.104L101.336 56H94.5523ZM109.246 51.52H118.91V56H103.038V51.84L112.638 38.016H103.038V33.536H118.91V37.696L109.246 51.52ZM140.116 38.144V56H134.644V53.568C134.089 54.3573 133.332 54.9973 132.372 55.488C131.433 55.9573 130.388 56.192 129.236 56.192C127.871 56.192 126.665 55.8933 125.62 55.296C124.575 54.6773 123.764 53.792 123.188 52.64C122.612 51.488 122.324 50.1333 122.324 48.576V38.144H127.764V47.84C127.764 49.0347 128.073 49.9627 128.692 50.624C129.311 51.2853 130.143 51.616 131.188 51.616C132.255 51.616 133.097 51.2853 133.716 50.624C134.335 49.9627 134.644 49.0347 134.644 47.84V38.144H140.116ZM154.927 37.952C157.017 37.952 158.681 38.6347 159.919 40C161.177 41.344 161.807 43.2 161.807 45.568V56H156.367V46.304C156.367 45.1093 156.057 44.1813 155.439 43.52C154.82 42.8587 153.988 42.528 152.943 42.528C151.897 42.528 151.065 42.8587 150.447 43.52C149.828 44.1813 149.519 45.1093 149.519 46.304V56H144.047V38.144H149.519V40.512C150.073 39.7227 150.82 39.104 151.759 38.656C152.697 38.1867 153.753 37.952 154.927 37.952Z" fill="white" fill-opacity="0.89"/>
</svg>
