<svg width="273" height="50" viewBox="0 0 273 50" fill="none" xmlns="http://www.w3.org/2000/svg">
<path d="M25 50C38.8071 50 50 38.8071 50 25C50 11.1929 38.8071 0 25 0C11.1929 0 0 11.1929 0 25C0 38.8071 11.1929 50 25 50Z" fill="url(#paint0_linear)"/>
<path d="M32.5 7L17.5 19.2297L32.5 27.6698L17.5 43" stroke="white" stroke-width="8"/>
<path d="M67.4648 40.7344C66.1523 40.3438 65.1641 39.707 64.5 38.8242C63.8359 37.9414 63.5039 36.7695 63.5039 35.3086V32.7188C63.5039 30.6641 62.6016 29.6367 60.7969 29.6367V28.418C62.6016 28.418 63.5039 27.3984 63.5039 25.3594V22.6758C63.5117 21.2461 63.8438 20.0898 64.5 19.207C65.1562 18.3242 66.1445 17.6836 67.4648 17.2852L67.7695 18.2109C65.8633 18.8203 64.9102 20.3477 64.9102 22.793V25.2891C64.9102 27.2109 64.1914 28.457 62.7539 29.0273C64.1914 29.6289 64.9102 30.8711 64.9102 32.7539V35.4258C64.9414 37.707 65.9062 39.1641 67.8047 39.7969L67.4648 40.7344ZM89.5078 30.4062C89.5078 29.1458 89.0651 28.151 88.1797 27.4219C87.2943 26.6823 85.6745 25.9844 83.3203 25.3281C80.9661 24.6615 79.2474 23.9375 78.1641 23.1562C76.6224 22.0521 75.8516 20.6042 75.8516 18.8125C75.8516 17.0729 76.5651 15.6615 77.9922 14.5781C79.4297 13.4844 81.263 12.9375 83.4922 12.9375C85.0026 12.9375 86.3516 13.2292 87.5391 13.8125C88.737 14.3958 89.6641 15.2083 90.3203 16.25C90.9766 17.2917 91.3047 18.4531 91.3047 19.7344H89.3672C89.3672 18.1823 88.8359 16.9375 87.7734 16C86.7109 15.0521 85.2839 14.5781 83.4922 14.5781C81.7526 14.5781 80.3672 14.9688 79.3359 15.75C78.3047 16.5208 77.7891 17.5312 77.7891 18.7812C77.7891 19.9375 78.2526 20.8802 79.1797 21.6094C80.1068 22.3385 81.5911 22.9844 83.6328 23.5469C85.6745 24.099 87.2214 24.6771 88.2734 25.2812C89.3255 25.875 90.1172 26.5885 90.6484 27.4219C91.1797 28.2552 91.4453 29.2396 91.4453 30.375C91.4453 32.1667 90.7266 33.6042 89.2891 34.6875C87.862 35.7708 85.9766 36.3125 83.6328 36.3125C82.0286 36.3125 80.5547 36.026 79.2109 35.4531C77.8776 34.8802 76.862 34.0781 76.1641 33.0469C75.4766 32.0156 75.1328 30.8333 75.1328 29.5H77.0547C77.0547 31.1042 77.6536 32.3698 78.8516 33.2969C80.0495 34.224 81.6432 34.6875 83.6328 34.6875C85.4036 34.6875 86.8255 34.2969 87.8984 33.5156C88.9714 32.7344 89.5078 31.6979 89.5078 30.4062ZM108.758 27.7188C108.758 30.3542 108.174 32.4479 107.008 34C105.841 35.5417 104.279 36.3125 102.32 36.3125C100.008 36.3125 98.237 35.5 97.0078 33.875V42.5H95.1484V19.0938H96.8828L96.9766 21.4844C98.1953 19.6823 99.9609 18.7812 102.273 18.7812C104.294 18.7812 105.878 19.5469 107.023 21.0781C108.18 22.6094 108.758 24.7344 108.758 27.4531V27.7188ZM106.883 27.3906C106.883 25.2344 106.44 23.5312 105.555 22.2812C104.669 21.0312 103.435 20.4062 101.852 20.4062C100.706 20.4062 99.7214 20.6823 98.8984 21.2344C98.0755 21.7865 97.4453 22.5885 97.0078 23.6406V31.75C97.4557 32.7188 98.0964 33.4583 98.9297 33.9688C99.763 34.4792 100.747 34.7344 101.883 34.7344C103.456 34.7344 104.68 34.1094 105.555 32.8594C106.44 31.599 106.883 29.776 106.883 27.3906ZM119.461 36.3125C118.023 36.3125 116.721 35.9583 115.555 35.25C114.398 34.5417 113.497 33.5573 112.852 32.2969C112.206 31.026 111.883 29.6042 111.883 28.0312V27.3594C111.883 25.7344 112.195 24.2708 112.82 22.9688C113.456 21.6667 114.336 20.6458 115.461 19.9062C116.586 19.1562 117.805 18.7812 119.117 18.7812C121.169 18.7812 122.794 19.4844 123.992 20.8906C125.201 22.2865 125.805 24.1979 125.805 26.625V27.6719H113.742V28.0312C113.742 29.9479 114.289 31.5469 115.383 32.8281C116.487 34.099 117.872 34.7344 119.539 34.7344C120.539 34.7344 121.419 34.5521 122.18 34.1875C122.951 33.8229 123.648 33.2396 124.273 32.4375L125.445 33.3281C124.07 35.3177 122.076 36.3125 119.461 36.3125ZM119.117 20.375C117.711 20.375 116.523 20.8906 115.555 21.9219C114.596 22.9531 114.013 24.3385 113.805 26.0781H123.945V25.875C123.893 24.25 123.43 22.9271 122.555 21.9062C121.68 20.8854 120.534 20.375 119.117 20.375ZM135.695 34.7344C136.997 34.7344 138.086 34.3698 138.961 33.6406C139.846 32.901 140.326 31.9479 140.398 30.7812H142.195C142.143 31.8125 141.82 32.7552 141.227 33.6094C140.633 34.4531 139.841 35.1146 138.852 35.5938C137.872 36.0729 136.82 36.3125 135.695 36.3125C133.477 36.3125 131.716 35.5417 130.414 34C129.122 32.4583 128.477 30.3854 128.477 27.7812V27.2188C128.477 25.5521 128.768 24.0781 129.352 22.7969C129.935 21.5156 130.768 20.526 131.852 19.8281C132.945 19.1302 134.221 18.7812 135.68 18.7812C137.534 18.7812 139.06 19.3333 140.258 20.4375C141.466 21.5417 142.112 22.9948 142.195 24.7969H140.398C140.315 23.474 139.836 22.4062 138.961 21.5938C138.096 20.7812 137.003 20.375 135.68 20.375C133.992 20.375 132.68 20.9844 131.742 22.2031C130.815 23.4219 130.352 25.1302 130.352 27.3281V27.875C130.352 30.0312 130.815 31.7135 131.742 32.9219C132.68 34.1302 133.997 34.7344 135.695 34.7344ZM148.852 14.7656V19.0938H152.352V20.625H148.852V31.8906C148.852 32.8281 149.018 33.526 149.352 33.9844C149.695 34.4427 150.263 34.6719 151.055 34.6719C151.367 34.6719 151.872 34.6198 152.57 34.5156L152.648 36.0469C152.159 36.224 151.492 36.3125 150.648 36.3125C149.367 36.3125 148.435 35.9427 147.852 35.2031C147.268 34.4531 146.977 33.3542 146.977 31.9062V20.625H143.867V19.0938H146.977V14.7656H148.852ZM164.039 20.6875C163.643 20.6146 163.221 20.5781 162.773 20.5781C161.607 20.5781 160.617 20.9062 159.805 21.5625C159.003 22.2083 158.43 23.151 158.086 24.3906V36H156.227V19.0938H158.055L158.086 21.7812C159.076 19.7812 160.664 18.7812 162.852 18.7812C163.372 18.7812 163.784 18.849 164.086 18.9844L164.039 20.6875ZM177.055 36C176.867 35.4688 176.747 34.6823 176.695 33.6406C176.039 34.4948 175.201 35.1562 174.18 35.625C173.169 36.0833 172.096 36.3125 170.961 36.3125C169.336 36.3125 168.018 35.8594 167.008 34.9531C166.008 34.0469 165.508 32.901 165.508 31.5156C165.508 29.8698 166.19 28.5677 167.555 27.6094C168.93 26.651 170.841 26.1719 173.289 26.1719H176.68V24.25C176.68 23.0417 176.305 22.0938 175.555 21.4062C174.815 20.7083 173.732 20.3594 172.305 20.3594C171.003 20.3594 169.924 20.6927 169.07 21.3594C168.216 22.026 167.789 22.8281 167.789 23.7656L165.914 23.75C165.914 22.4062 166.539 21.2448 167.789 20.2656C169.039 19.276 170.576 18.7812 172.398 18.7812C174.284 18.7812 175.768 19.2552 176.852 20.2031C177.945 21.1406 178.508 22.4531 178.539 24.1406V32.1406C178.539 33.776 178.711 35 179.055 35.8125V36H177.055ZM171.18 34.6562C172.43 34.6562 173.544 34.3542 174.523 33.75C175.513 33.1458 176.232 32.3385 176.68 31.3281V27.6094H173.336C171.471 27.6302 170.013 27.974 168.961 28.6406C167.909 29.2969 167.383 30.2031 167.383 31.3594C167.383 32.3073 167.732 33.0938 168.43 33.7188C169.138 34.3438 170.055 34.6562 171.18 34.6562ZM185.633 36H183.758V12H185.633V36ZM191.164 36V13.25H197.523C199.388 13.25 201.06 13.6771 202.539 14.5312C204.018 15.375 205.169 16.5885 205.992 18.1719C206.826 19.7552 207.242 21.5573 207.242 23.5781V25.6719C207.242 27.7031 206.831 29.5052 206.008 31.0781C205.185 32.651 204.023 33.8646 202.523 34.7188C201.034 35.5729 199.32 36 197.383 36H191.164ZM193.086 14.8906V34.375H197.398C199.794 34.375 201.716 33.5833 203.164 32C204.612 30.4062 205.336 28.2552 205.336 25.5469V23.5469C205.336 20.9323 204.622 18.8385 203.195 17.2656C201.768 15.6927 199.888 14.901 197.555 14.8906H193.086ZM218.242 36.3125C216.805 36.3125 215.503 35.9583 214.336 35.25C213.18 34.5417 212.279 33.5573 211.633 32.2969C210.987 31.026 210.664 29.6042 210.664 28.0312V27.3594C210.664 25.7344 210.977 24.2708 211.602 22.9688C212.237 21.6667 213.117 20.6458 214.242 19.9062C215.367 19.1562 216.586 18.7812 217.898 18.7812C219.951 18.7812 221.576 19.4844 222.773 20.8906C223.982 22.2865 224.586 24.1979 224.586 26.625V27.6719H212.523V28.0312C212.523 29.9479 213.07 31.5469 214.164 32.8281C215.268 34.099 216.654 34.7344 218.32 34.7344C219.32 34.7344 220.201 34.5521 220.961 34.1875C221.732 33.8229 222.43 33.2396 223.055 32.4375L224.227 33.3281C222.852 35.3177 220.857 36.3125 218.242 36.3125ZM217.898 20.375C216.492 20.375 215.305 20.8906 214.336 21.9219C213.378 22.9531 212.794 24.3385 212.586 26.0781H222.727V25.875C222.674 24.25 222.211 22.9271 221.336 21.9062C220.461 20.8854 219.315 20.375 217.898 20.375ZM233.273 33.4219L238.414 19.0938H240.336L234.023 36H232.508L226.164 19.0938H228.086L233.273 33.4219ZM253.539 31.7031C253.539 30.776 253.164 30.0312 252.414 29.4688C251.674 28.9062 250.555 28.4688 249.055 28.1562C247.555 27.8333 246.388 27.4688 245.555 27.0625C244.732 26.6458 244.117 26.1406 243.711 25.5469C243.315 24.9531 243.117 24.2344 243.117 23.3906C243.117 22.0573 243.674 20.9583 244.789 20.0938C245.904 19.2188 247.331 18.7812 249.07 18.7812C250.956 18.7812 252.466 19.25 253.602 20.1875C254.747 21.1146 255.32 22.3281 255.32 23.8281H253.445C253.445 22.8385 253.029 22.0156 252.195 21.3594C251.372 20.7031 250.331 20.375 249.07 20.375C247.841 20.375 246.852 20.651 246.102 21.2031C245.362 21.7448 244.992 22.4531 244.992 23.3281C244.992 24.1719 245.299 24.8281 245.914 25.2969C246.539 25.7552 247.669 26.1771 249.305 26.5625C250.951 26.9479 252.18 27.3594 252.992 27.7969C253.815 28.2344 254.424 28.7604 254.82 29.375C255.216 29.9896 255.414 30.7344 255.414 31.6094C255.414 33.0365 254.836 34.1771 253.68 35.0312C252.534 35.8854 251.034 36.3125 249.18 36.3125C247.211 36.3125 245.612 35.8385 244.383 34.8906C243.164 33.9323 242.555 32.724 242.555 31.2656H244.43C244.503 32.3594 244.961 33.2135 245.805 33.8281C246.659 34.4323 247.784 34.7344 249.18 34.7344C250.482 34.7344 251.534 34.4479 252.336 33.875C253.138 33.3021 253.539 32.5781 253.539 31.7031ZM265.082 39.7969C266.98 39.1641 267.945 37.707 267.977 35.4258V32.8008C267.977 30.8242 268.73 29.5703 270.238 29.0391C268.73 28.5078 267.977 27.2617 267.977 25.3008V22.8047C267.977 20.3359 267.023 18.8047 265.117 18.2109L265.422 17.2852C266.758 17.6836 267.75 18.332 268.398 19.2305C269.055 20.1211 269.383 21.293 269.383 22.7461V25.3594C269.383 27.3984 270.285 28.418 272.09 28.418V29.6367C270.285 29.6367 269.383 30.6641 269.383 32.7188V35.3086C269.383 36.7695 269.051 37.9414 268.387 38.8242C267.723 39.707 266.734 40.3438 265.422 40.7344L265.082 39.7969Z" fill="url(#paint1_linear)"/>
<defs>
<linearGradient id="paint0_linear" x1="0" y1="25" x2="50" y2="25" gradientUnits="userSpaceOnUse">
<stop stop-color="#15F1FF"/>
<stop offset="0.0001" stop-color="#3DA2FF"/>
<stop offset="1" stop-color="#FF50AE"/>
</linearGradient>
<linearGradient id="paint1_linear" x1="60" y1="25" x2="273" y2="25" gradientUnits="userSpaceOnUse">
<stop stop-color="#1EA2EC"/>
<stop offset="1" stop-color="#EC77FF"/>
</linearGradient>
</defs>
</svg>
