<svg width="77" height="91" viewBox="0 0 77 91" fill="none" xmlns="http://www.w3.org/2000/svg">
<path d="M75.0174 77.2676C76.0881 78.4516 75.9313 80.3008 74.6968 81.3128C69.2984 85.7378 64.2392 90.0743 55.0871 89.2626C54.1927 89.1833 53.2872 89.1643 52.4006 89.3067C44.807 90.5262 37.1823 93.2552 30.0145 87.2964C28.9668 86.4254 27.8511 85.6136 26.5612 85.1747C19.7231 82.848 13.7327 82.7574 9.41219 72.1346C9.05257 71.2504 8.61179 70.3924 8.01967 69.6437C3.52359 63.959 -1.12495 60.6697 0.643417 49.4978C0.764877 48.7305 0.830872 47.9509 0.769081 47.1765C0.201103 40.0582 -2.13454 35.0714 5.67461 26.9974C6.26782 26.384 6.82243 25.7234 7.20999 24.9632C10.5003 18.5094 9.69496 10.9507 20.4304 9.06775C21.6087 8.86107 22.7769 8.55147 23.8232 7.97134C29.8321 4.63963 40.2613 -2.15653 49.431 0.673432C51.8045 1.40594 54.2848 1.96357 56.7663 1.85264C64.9548 1.4866 67.0042 5.67807 71.4788 9.48076C72.6851 10.506 73.0088 12.3108 72.0542 13.5737C71.1893 14.7179 69.591 14.9892 68.3431 14.2821C62.6322 11.0464 56.1363 9.16332 49.4295 8.81773C41.8551 8.42744 34.3144 10.0137 27.6609 13.3969C21.0074 16.7801 15.507 21.8251 11.7822 27.9608C8.05743 34.0965 6.25713 41.0778 6.58513 48.1144C6.91313 55.1509 9.35632 61.9617 13.6381 67.7757C17.9199 73.5897 23.8693 78.1746 30.8127 81.0115C37.7561 83.8483 45.4163 84.8238 52.9259 83.8274C59.568 82.9461 65.8577 80.5534 71.2421 76.8787C72.4312 76.0673 74.0519 76.2 75.0174 77.2676Z" fill="#52ACFF"/>
<path d="M47.6 28.304C51.152 28.304 54.256 29.008 56.912 30.416C59.568 31.824 61.616 33.808 63.056 36.368C64.528 38.896 65.264 41.824 65.264 45.152C65.264 48.448 64.528 51.376 63.056 53.936C61.616 56.496 59.552 58.48 56.864 59.888C54.208 61.296 51.12 62 47.6 62H34.976V28.304H47.6ZM47.072 54.896C50.176 54.896 52.592 54.048 54.32 52.352C56.048 50.656 56.912 48.256 56.912 45.152C56.912 42.048 56.048 39.632 54.32 37.904C52.592 36.176 50.176 35.312 47.072 35.312H43.184V54.896H47.072Z" fill="white" fill-opacity="0.89"/>
</svg>
