<svg width="384" height="316" viewBox="0 0 384 316" fill="none" xmlns="http://www.w3.org/2000/svg">
<g clip-path="url(#clip0)">
<path d="M339.154 256.112C331.418 271.214 321.606 285.82 309.191 299.04C308.915 299.338 308.636 299.629 308.356 299.925L278.941 285.995C279.121 285.695 279.318 285.36 279.53 284.993C292.166 263.366 368.439 131.438 366.029 101.559C366.31 104.023 375.35 185.521 339.154 256.112Z" fill="#E6E6E6"/>
<path d="M314.865 301.727C314.454 301.961 314.032 302.191 313.607 302.412L291.541 291.962C291.849 291.743 292.208 291.484 292.621 291.193C299.382 286.337 319.484 271.769 339.154 256.112C360.292 239.286 380.934 221.208 384 212.579C383.377 214.558 364.03 274.708 314.865 301.727Z" fill="#E6E6E6"/>
<path d="M113.655 316C176.425 316 227.31 310.96 227.31 304.743C227.31 298.525 176.425 293.485 113.655 293.485C50.8851 293.485 0 298.525 0 304.743C0 310.96 50.8851 316 113.655 316Z" fill="#E6E6E6"/>
<path d="M51.4224 310.033C70.2299 310.033 85.4763 294.781 85.4763 275.966C85.4763 257.151 70.2299 241.899 51.4224 241.899C32.6149 241.899 17.3684 257.151 17.3684 275.966C17.3684 294.781 32.6149 310.033 51.4224 310.033Z" fill="#4589EE"/>
<path d="M65.0632 261.67H37.7815C36.5759 261.671 35.4202 262.151 34.5678 263.004C33.7153 263.856 33.2359 265.013 33.2345 266.219V285.713C33.2358 286.919 33.7153 288.075 34.5678 288.928C35.4202 289.781 36.5759 290.261 37.7815 290.262H65.0633C66.2688 290.261 67.4245 289.781 68.277 288.928C69.1294 288.075 69.6089 286.919 69.6102 285.713V266.219C69.6089 265.013 69.1294 263.856 68.2769 263.004C67.4245 262.151 66.2688 261.671 65.0632 261.67ZM65.0632 264.269C65.2261 264.27 65.3883 264.291 65.5459 264.332L51.4255 275.6L37.3877 264.309C37.5173 264.283 37.6492 264.269 37.7814 264.269H65.0632ZM65.0632 287.663H37.7815C37.2648 287.662 36.7695 287.456 36.4042 287.091C36.0388 286.726 35.8333 286.23 35.8328 285.713V266.394L50.6083 278.278C50.8384 278.463 51.1247 278.565 51.4199 278.565C51.7151 278.566 52.0017 278.466 52.2325 278.282L67.012 266.487V285.713C67.0114 286.23 66.8059 286.726 66.4406 287.091C66.0752 287.456 65.5799 287.662 65.0632 287.663Z" fill="white"/>
<path d="M144.903 189.618L117.077 191.408L109.614 164.98L134.07 159.246L144.903 189.618Z" fill="#2F2E41"/>
<path d="M182.845 224.227L190.464 224.289C191.235 224.296 191.998 224.134 192.7 223.815C193.402 223.496 194.026 223.027 194.529 222.442C195.031 221.857 195.4 221.17 195.61 220.427C195.819 219.685 195.864 218.906 195.742 218.144C195.61 217.325 195.288 216.548 194.801 215.875C194.314 215.203 193.677 214.654 192.939 214.274C192.202 213.893 191.386 213.691 190.556 213.683C189.726 213.675 188.906 213.863 188.162 214.23L180.976 217.777L156.399 223.26L145.87 212.491L139.822 222.456L154.03 233.438L182.845 224.227Z" fill="#FFB8B8"/>
<path d="M181.416 302.981L172.439 304.708C166.307 285.371 159.663 267.059 159.664 252.896C150.986 262.558 140.225 268.085 127.553 269.821L128.934 248.406L139.292 242.879L155.146 235.559C156.534 234.918 158.031 234.548 159.558 234.467C162.526 234.311 165.447 235.259 167.758 237.128C170.069 238.997 171.608 241.655 172.078 244.591L181.416 302.981Z" fill="#FFB8B8"/>
<path d="M180.035 294.345C180.035 294.345 180.896 293.981 184.334 298.481C184.334 298.481 195.312 300.526 193.496 305.478C191.681 310.431 177.565 310.275 176.224 309.518C174.882 308.762 164.206 308.777 164.944 305.413C165.682 302.048 169.935 298.287 169.935 298.287C169.935 298.287 171.89 302.251 174.93 302.268C178.999 302.29 180.38 298.836 179.69 295.382C179.683 295.349 180.061 294.366 180.035 294.345Z" fill="#2F2E41"/>
<path d="M110.956 282.568C110.956 282.568 112.301 286.246 106.246 288.462C106.246 288.462 100.306 299.712 95.5376 296.06C90.7693 292.408 95.7175 277.106 96.9941 275.902C98.2706 274.699 101.868 263.08 105.276 265.022C108.683 266.964 111.331 272.863 111.331 272.863C111.331 272.863 100.359 276.388 105.55 284.546C105.55 284.546 107.812 284.699 110.956 282.568Z" fill="#2F2E41"/>
<path d="M123.505 185.015C129.749 185.015 134.811 179.951 134.811 173.704C134.811 167.457 129.749 162.393 123.505 162.393C117.26 162.393 112.198 167.457 112.198 173.704C112.198 179.951 117.26 185.015 123.505 185.015Z" fill="#FFB8B8"/>
<path d="M133.25 203.674H113.569L109.426 191.585C116.609 189.392 114.931 183.163 113.569 177.078H133.25C129.435 184.69 124.694 195.464 133.941 197.457L133.25 203.674Z" fill="#FFB8B8"/>
<path d="M138.429 267.231L134.851 269.951C133.313 271.121 131.495 271.868 129.579 272.117C127.663 272.367 125.714 272.112 123.927 271.376C113.679 263.691 105.321 265.994 98.7221 277.593C90.807 268.657 89.9318 255.714 96.9956 242.361L136.185 243.224L144.126 240.806L138.429 267.231Z" fill="#2F2E41"/>
<path d="M125.378 307.251C123.132 307.942 120.715 307.821 118.55 306.908C116.385 305.995 114.61 304.35 113.536 302.259C110.014 299.156 107.042 294.713 104.465 289.31C102.615 285.347 101.028 281.267 99.7112 277.096C97.9277 271.585 100.91 265.565 106.46 263.917C106.625 263.868 106.792 263.822 106.961 263.778C114.371 261.875 121.98 266.15 124.512 273.371L131.877 294.369C132.323 295.64 132.508 296.989 132.42 298.333C132.333 299.678 131.975 300.991 131.368 302.194C130.761 303.396 129.918 304.464 128.888 305.333C127.859 306.202 126.665 306.854 125.378 307.251Z" fill="#FFB8B8"/>
<path opacity="0.2" d="M103.211 286.919C103.211 286.919 111.843 296.591 113.569 302.117L103.211 286.919Z" fill="black"/>
<path d="M69.7325 241.275L66.8435 248.329C66.5512 249.043 66.418 249.812 66.4533 250.582C66.4886 251.353 66.6914 252.106 67.0477 252.79C67.4039 253.474 67.9051 254.072 68.5162 254.543C69.1272 255.013 69.8335 255.345 70.5857 255.514C71.3953 255.696 72.2363 255.685 73.0411 255.483C73.8459 255.281 74.592 254.892 75.2193 254.349C75.8466 253.805 76.3376 253.122 76.6529 252.354C76.9681 251.587 77.0988 250.755 77.0343 249.928L76.4118 241.936L80.4539 217.072L94.3601 211.294L87.3588 201.974L71.8887 211.091L69.7325 241.275Z" fill="#FFB8B8"/>
<path d="M138.774 242.361C128.854 259.031 112.899 256.106 95.9598 243.052C103.104 237.708 98.7221 222.327 92.5071 221.291C86.0804 220.219 85.3075 207.071 82.8392 200.566L112.879 189.513L120.993 195.903L129.107 194.003L132.433 195.184C134.598 195.952 136.476 197.366 137.814 199.234C139.152 201.102 139.886 203.335 139.918 205.633C133.101 215.485 128.054 225.994 138.774 242.361Z" fill="#4589EE"/>
<path d="M142.572 228.89C142.572 228.89 141.043 221.003 136.025 223.478C131.006 225.954 130.66 219.045 130.66 219.045L134.631 196.075L150.859 213.346L142.572 228.89Z" fill="#4589EE"/>
<path d="M134.065 159.147C134.065 159.147 139.795 161.296 139.875 168.927C139.872 170.211 139.689 171.489 139.332 172.722C138.947 174.121 138.621 177.161 141.092 181.239C142.707 183.886 144.163 186.626 145.455 189.445L138.976 190.013L138.001 179.269C137.528 174.06 136.291 168.949 134.33 164.101L134.289 164C134.289 164 131.274 169.137 125.631 168.928L127.721 166.987C127.721 166.987 120.629 169.587 116.78 170.088C116.341 170.145 115.926 170.321 115.579 170.597C115.232 170.873 114.967 171.238 114.813 171.653C114.658 172.068 114.62 172.518 114.702 172.953C114.784 173.389 114.983 173.794 115.278 174.124C115.301 174.149 115.323 174.174 115.347 174.199C117.675 176.708 122.303 182.532 119.317 186.862C116.332 191.193 118.705 192.492 118.705 192.492L114.362 189.909L112.391 188.624L112.332 190.237L101.898 188.639C101.898 188.639 99.0913 188.132 105.39 181.501C105.39 181.501 107.085 178.899 106.472 176.577C105.963 174.811 105.88 172.95 106.232 171.146C107.866 163.637 113.736 148.807 134.065 159.147Z" fill="#2F2E41"/>
<path d="M340.232 73.6469H338.529V26.9983C338.529 19.8379 335.686 12.9708 330.625 7.9076C325.563 2.84445 318.699 0 311.541 0H212.748C205.59 0 198.726 2.84445 193.665 7.9076C188.603 12.9708 185.76 19.8379 185.76 26.9983V282.917C185.76 290.077 188.603 296.944 193.665 302.008C198.726 307.071 205.59 309.915 212.748 309.915H311.541C318.698 309.915 325.563 307.071 330.624 302.008C335.685 296.944 338.529 290.077 338.529 282.917V106.852H340.231L340.232 73.6469Z" fill="#3F3D56"/>
<path d="M312.63 7.02347H299.734C300.328 8.47809 300.554 10.0564 300.394 11.6193C300.234 13.1821 299.692 14.6816 298.816 15.9856C297.94 17.2896 296.757 18.3581 295.371 19.0968C293.985 19.8356 292.439 20.222 290.868 20.2219H234.271C232.701 20.2218 231.155 19.8354 229.769 19.0967C228.383 18.3579 227.2 17.2896 226.324 15.9858C225.449 14.682 224.907 13.1827 224.746 11.6201C224.586 10.0574 224.813 8.47927 225.406 7.02474H213.359C208.014 7.02474 202.887 9.14902 199.107 12.9303C195.328 16.7115 193.204 21.8399 193.204 27.1874V282.729C193.204 288.077 195.328 293.205 199.107 296.986C202.887 300.768 208.014 302.892 213.359 302.892H312.626C317.972 302.892 323.098 300.768 326.878 296.986C330.658 293.205 332.781 288.077 332.781 282.729V282.729V27.1861C332.781 21.8386 330.658 16.7102 326.878 12.9289C323.098 9.14771 317.972 7.02344 312.626 7.02344H312.63V7.02347Z" fill="white"/>
<path d="M263.165 288.611C269.278 288.611 274.233 283.654 274.233 277.539C274.233 271.425 269.278 266.468 263.165 266.468C257.053 266.468 252.098 271.425 252.098 277.539C252.098 283.654 257.053 288.611 263.165 288.611Z" fill="#E6E6E6"/>
<path d="M218.267 175.147C217.22 175.147 216.369 176.119 216.369 177.314C216.369 178.508 217.22 179.48 218.267 179.48H307.719C308.765 179.48 309.616 178.508 309.616 177.314C309.616 176.119 308.765 175.147 307.719 175.147H218.267Z" fill="#E6E6E6"/>
<path d="M218.267 226.248C217.22 226.248 216.369 227.22 216.369 228.415C216.369 229.609 217.22 230.581 218.267 230.581H307.719C308.765 230.581 309.616 229.609 309.616 228.415C309.616 227.22 308.765 226.248 307.719 226.248H218.267Z" fill="#E6E6E6"/>
<path d="M218.267 188.147C217.22 188.147 216.369 189.119 216.369 190.314C216.369 191.508 217.22 192.48 218.267 192.48H256.758C257.804 192.48 258.656 191.508 258.656 190.314C258.656 189.119 257.804 188.147 256.758 188.147H218.267Z" fill="#E6E6E6"/>
<path d="M218.267 200.538C217.22 200.538 216.369 201.51 216.369 202.705C216.369 203.899 217.22 204.872 218.267 204.872H307.719C308.765 204.872 309.616 203.899 309.616 202.705C309.616 201.51 308.765 200.538 307.719 200.538H218.267Z" fill="#E6E6E6"/>
<path d="M218.267 213.538C217.22 213.538 216.369 214.51 216.369 215.705C216.369 216.899 217.22 217.871 218.267 217.871H256.758C257.804 217.871 258.656 216.899 258.656 215.705C258.656 214.51 257.804 213.538 256.758 213.538H218.267Z" fill="#E6E6E6"/>
<path d="M235.154 76.4924H290.838C291.453 76.4932 292.042 76.7379 292.477 77.1731C292.912 77.6082 293.157 78.1981 293.158 78.8135V136.829C293.157 137.444 292.912 138.034 292.477 138.469C292.042 138.904 291.453 139.149 290.838 139.15H235.154C234.538 139.149 233.949 138.904 233.514 138.469C233.079 138.034 232.834 137.444 232.833 136.829V78.8135C232.834 78.1981 233.079 77.6082 233.514 77.1731C233.949 76.7379 234.538 76.4932 235.154 76.4924Z" fill="#4589EE"/>
<path d="M278.972 127.186C279.179 127.186 279.385 127.146 279.576 127.067C279.767 126.988 279.941 126.872 280.088 126.725C280.234 126.579 280.351 126.405 280.43 126.214C280.509 126.022 280.55 125.817 280.55 125.61C280.55 125.403 280.509 125.198 280.43 125.006C280.351 124.815 280.234 124.641 280.088 124.495C279.941 124.349 279.767 124.233 279.576 124.154C279.385 124.074 279.179 124.034 278.972 124.034H247.019C246.812 124.034 246.607 124.074 246.415 124.154C246.224 124.233 246.05 124.349 245.903 124.495C245.757 124.641 245.64 124.815 245.561 125.006C245.482 125.198 245.441 125.403 245.441 125.61C245.441 125.817 245.482 126.022 245.561 126.214C245.64 126.405 245.757 126.579 245.903 126.725C246.05 126.872 246.224 126.988 246.415 127.067C246.607 127.146 246.812 127.186 247.019 127.186H278.972Z" fill="white"/>
<path d="M278.972 117.902C279.39 117.902 279.791 117.736 280.086 117.44C280.382 117.145 280.548 116.744 280.548 116.326C280.548 115.908 280.382 115.507 280.086 115.212C279.791 114.916 279.39 114.75 278.972 114.75H247.019C246.812 114.75 246.607 114.791 246.416 114.87C246.225 114.949 246.051 115.065 245.905 115.212C245.759 115.358 245.643 115.532 245.563 115.723C245.484 115.914 245.443 116.119 245.443 116.326C245.443 116.533 245.484 116.738 245.563 116.929C245.643 117.12 245.759 117.294 245.905 117.44C246.051 117.587 246.225 117.703 246.416 117.782C246.607 117.861 246.812 117.902 247.019 117.902H278.972Z" fill="white"/>
<path d="M262.995 88.4563C264.956 88.4563 266.873 89.038 268.504 90.1279C270.134 91.2178 271.405 92.767 272.156 94.5794C272.906 96.3918 273.102 98.3862 272.72 100.31C272.337 102.234 271.393 104.002 270.006 105.389C268.62 106.776 266.853 107.721 264.93 108.104C263.006 108.486 261.013 108.29 259.201 107.539C257.389 106.788 255.841 105.517 254.751 103.886C253.662 102.255 253.08 100.337 253.08 98.3752C253.083 95.7455 254.129 93.2243 255.988 91.3648C257.846 89.5053 260.367 88.4593 262.995 88.4563Z" fill="white"/>
</g>
<defs>
<clipPath id="clip0">
<rect width="384" height="316" fill="white"/>
</clipPath>
</defs>
</svg>
